<svg xmlns="http://www.w3.org/2000/svg"
 xmlns:xlink="http://www.w3.org/1999/xlink"
 width="23px" height="23px"  viewBox="0 0 23 23">
<path fill-rule="evenodd"  fill="#e4e4e4"
 d="M19.454407,22.0 C19.454407,22.0 4.1816864,22.0 4.1816864,22.0 C2.7759247,22.0 1.6363068,20.880615 1.6363068,19.499756 C1.6363068,19.499756 1.6363068,4.4995117 1.6363068,4.4995117 C1.6363068,3.1188965 2.7759247,1.9997559 4.1816864,1.9997559 C4.1816864,1.9997559 19.454407,1.9997559 19.454407,1.9997559 C20.860306,1.9997559 21.999924,3.1188965 21.999924,4.4995117 C21.999924,4.4995117 21.999924,19.499756 21.999924,19.499756 C21.999924,20.880615 20.860306,22.0 19.454407,22.0 ZM11.818115,8.124512 C10.230682,8.124512 8.865967,9.047119 8.239914,10.374512 C8.239914,10.374512 8.236328,10.374512 8.236328,10.374512 C8.229828,10.388672 8.225388,10.403564 8.218948,10.417236 C8.181549,10.499268 8.148361,10.583496 8.116669,10.668701 C8.101501,10.708984 8.085205,10.749268 8.07132,10.790283 C8.042358,10.876953 8.018463,10.965576 7.995575,11.05542 C7.9847717,11.097412 7.972122,11.138184 7.962738,11.180664 C7.9421387,11.2751465 7.9275513,11.371338 7.9141083,11.468018 C7.9086,11.507324 7.900238,11.545166 7.895874,11.584961 C7.881134,11.721191 7.8726196,11.859619 7.8726196,11.999512 C7.8726196,14.139893 9.639023,15.875 11.818115,15.875 C13.99707,15.875 15.763611,14.139893 15.763611,11.999512 C15.763611,11.859619 15.755096,11.721191 15.740372,11.584961 C15.736008,11.545166 15.727631,11.507324 15.722122,11.468018 C15.708542,11.371338 15.694092,11.2751465 15.673416,11.180664 C15.664124,11.138184 15.651321,11.097412 15.6406555,11.05542 C15.617767,10.965576 15.593887,10.876953 15.564774,10.790283 C15.551041,10.749268 15.534729,10.708984 15.519562,10.668701 C15.4878845,10.583496 15.454697,10.499268 15.417282,10.417236 C15.410843,10.403564 15.406418,10.388672 15.399765,10.374512 C15.399765,10.374512 15.396332,10.374512 15.396332,10.374512 C14.770264,9.047119 13.405411,8.124512 11.818115,8.124512 ZM19.70903,5.249756 C19.70903,4.69751 19.253128,4.2495117 18.690872,4.2495117 C18.690872,4.2495117 16.654541,4.2495117 16.654541,4.2495117 C16.092133,4.2495117 15.6362915,4.69751 15.6362915,5.249756 C15.6362915,5.249756 15.6362915,7.25 15.6362915,7.25 C15.6362915,7.802002 16.092133,8.249756 16.654541,8.249756 C16.654541,8.249756 18.690872,8.249756 18.690872,8.249756 C19.253128,8.249756 19.70903,7.802002 19.70903,7.25 C19.70903,7.25 19.70903,5.249756 19.70903,5.249756 ZM19.70903,10.374512 C19.70903,10.374512 17.832123,10.374512 17.832123,10.374512 C17.976898,10.892334 18.054428,11.437012 18.054428,11.999512 C18.054428,15.38208 15.26236,18.124512 11.818115,18.124512 C8.373871,18.124512 5.5818024,15.38208 5.5818024,11.999512 C5.5818024,11.437012 5.6593323,10.892334 5.8041077,10.374512 C5.8041077,10.374512 3.9272003,10.374512 3.9272003,10.374512 C3.9272003,10.374512 3.9272003,18.749756 3.9272003,18.749756 C3.9272003,19.302002 4.383026,19.75 4.9453735,19.75 C4.9453735,19.75 18.690872,19.75 18.690872,19.75 C19.253128,19.75 19.70903,19.302002 19.70903,18.749756 C19.70903,18.749756 19.70903,10.374512 19.70903,10.374512 Z"/>
</svg>