<svg xmlns="http://www.w3.org/2000/svg"
 xmlns:xlink="http://www.w3.org/1999/xlink"
 width="22px" height="16px"  viewBox="0 0 22 16">
<path fill-rule="evenodd"  fill="#323232"
 d="M14.950378,7.8320312 C14.950378,7.8320312 20.734497,2.2556152 20.734497,2.2556152 C20.898132,2.416504 20.999939,2.6394043 20.999939,2.8862305 C20.999939,2.8862305 20.999939,14.113281 20.999939,14.113281 C20.999939,14.34668 20.907654,14.556885 20.759827,14.715332 C20.759827,14.715332 14.950378,7.8320312 14.950378,7.8320312 ZM2.2962646,2.2302246 C2.4542236,2.088379 2.6611938,1.9997559 2.890564,1.9997559 C2.890564,1.9997559 20.109375,1.9997559 20.109375,1.9997559 C20.338684,1.9997559 20.545654,2.088379 20.703613,2.2302246 C20.703613,2.2302246 11.5,9.385986 11.5,9.385986 C11.5,9.385986 2.2962646,2.2302246 2.2962646,2.2302246 ZM2.2400513,14.715332 C2.0922241,14.556885 1.999939,14.34668 1.999939,14.113281 C1.999939,14.113281 1.999939,2.8862305 1.999939,2.8862305 C1.999939,2.6394043 2.1017456,2.416504 2.2653809,2.2556152 C2.2653809,2.2556152 8.049561,7.8320312 8.049561,7.8320312 C8.049561,7.8320312 2.2400513,14.715332 2.2400513,14.715332 ZM11.5,11.158691 C11.5,11.158691 13.915222,8.830322 13.915222,8.830322 C13.915222,8.830322 20.71991,14.7561035 20.71991,14.7561035 C20.560303,14.906006 20.346313,14.999756 20.109375,14.999756 C20.109375,14.999756 2.890564,14.999756 2.890564,14.999756 C2.6535645,14.999756 2.4395142,14.906006 2.2800293,14.7561035 C2.2800293,14.7561035 9.084717,8.830322 9.084717,8.830322 C9.084717,8.830322 11.5,11.158691 11.5,11.158691 Z"/>
</svg>