<svg xmlns="http://www.w3.org/2000/svg"
 xmlns:xlink="http://www.w3.org/1999/xlink"
 width="20px" height="26px"  viewBox="0 0 20 26">
<path fill-rule="evenodd"  fill="#323232"
 d="M9.598816,2.965332 C9.598816,2.965332 10.5920105,5.03833 10.5920105,5.03833 C10.93811,5.760742 10.700073,6.6896973 10.060211,7.1137695 C10.060211,7.1137695 8.901367,7.880371 8.901367,7.880371 C8.675629,8.030518 8.586426,8.347656 8.701233,8.588135 C8.701233,8.588135 10.713318,12.787598 10.713318,12.787598 C10.713318,12.787598 12.7951355,17.131836 12.7951355,17.131836 C12.852783,17.252441 12.958435,17.3479 13.082977,17.403076 C13.288239,17.495605 14.146332,17.39038 14.965576,17.328125 C14.965576,17.328125 15.19989,17.310059 15.19989,17.310059 C16.019165,17.247314 16.932251,17.79541 17.239319,18.534424 C17.239319,18.534424 17.877258,20.067871 17.877258,20.067871 C18.1846,20.806396 17.898071,21.795654 17.175385,22.173584 C11.889404,24.937256 9.872955,19.88623 9.872955,19.88623 C9.872955,19.88623 7.224365,14.357666 7.224365,14.357666 C7.224365,14.357666 4.6446533,8.973877 4.6446533,8.973877 C4.6446533,8.973877 1.9650879,4.2209473 7.5547485,2.0927734 C8.319153,1.8017578 9.252991,2.24292 9.598816,2.965332 Z"/>
</svg>