<svg xmlns="http://www.w3.org/2000/svg"
 xmlns:xlink="http://www.w3.org/1999/xlink"
 width="18px" height="24px"  viewBox="0 0 18 24">
<path fill-rule="evenodd"  fill="#323232"
 d="M9.0,22.999756 C9.0,22.999756 1.0,14.223633 1.0,9.875 C1.0,5.525879 4.5820312,1.9995117 9.0,1.9995117 C13.417969,1.9995117 17.0,5.525879 17.0,9.875 C17.0,14.223633 9.0,22.999756 9.0,22.999756 ZM9.0,4.624756 C6.0545654,4.624756 3.666687,6.975586 3.666687,9.875 C3.666687,12.774414 6.0545654,15.124756 9.0,15.124756 C11.945374,15.124756 14.333374,12.774414 14.333374,9.875 C14.333374,6.975586 11.945374,4.624756 9.0,4.624756 ZM9.0,12.499756 C7.5272217,12.499756 6.333252,11.324463 6.333252,9.875 C6.333252,8.425049 7.5272217,7.249756 9.0,7.249756 C10.472717,7.249756 11.666565,8.425049 11.666565,9.875 C11.666565,11.324463 10.472717,12.499756 9.0,12.499756 Z"/>
</svg>