<svg xmlns="http://www.w3.org/2000/svg"
 xmlns:xlink="http://www.w3.org/1999/xlink"
 width="24px" height="20px"  viewBox="0 0 24 20">
<path fill-rule="evenodd"  fill="#e4e4e4"
 d="M15.850906,1.8757324 C17.469177,1.8479004 18.330338,2.4265137 19.153107,3.1628418 C19.85141,3.104248 20.758926,2.7211914 21.293427,2.4545898 C21.466736,2.3613281 21.639969,2.2683105 21.81314,2.1750488 C21.507935,2.9855957 21.093872,3.619629 20.457733,4.1013184 C20.316391,4.208252 20.176208,4.352783 19.999039,4.4206543 C19.999039,4.423584 19.999039,4.427002 19.999039,4.43042 C20.905624,4.4213867 21.65335,4.0197754 22.363602,3.8017578 C22.363602,3.8051758 22.363602,3.8083496 22.363602,3.8117676 C21.990662,4.394287 21.485626,4.9848633 20.94696,5.4084473 C20.729523,5.578369 20.511948,5.748047 20.294647,5.9174805 C20.306519,6.8603516 20.28041,7.7597656 20.100952,8.552246 C19.057617,13.157959 16.293076,16.284424 11.916718,17.624268 C10.345367,18.105225 7.805786,18.302734 6.005417,17.863525 C5.112564,17.645996 4.305969,17.40039 3.5491486,17.075195 C3.1287231,16.894775 2.739273,16.699219 2.3669128,16.476318 C2.244522,16.403076 2.122223,16.330078 1.9999847,16.25708 C2.4060364,16.268799 2.8811798,16.378662 3.335144,16.30664 C3.7459106,16.241455 4.1486053,16.258545 4.5275574,16.177002 C5.472687,15.973633 6.3117523,15.704102 7.0348053,15.288818 C7.385208,15.0876465 7.9170074,14.85083 8.166061,14.560303 C7.696701,14.5686035 7.271347,14.46167 6.922653,14.34082 C5.5712585,13.87207 4.784546,13.010498 4.2727814,11.71582 C4.682266,11.759766 5.8619995,11.864502 6.1379547,11.63623 C5.6222534,11.608154 5.1265106,11.315186 4.772171,11.097168 C3.6851196,10.428955 2.7984161,9.30835 2.805069,7.5844727 C2.9477692,7.650879 3.090454,7.717041 3.2332153,7.7839355 C3.5062408,7.8969727 3.783905,7.9575195 4.1096954,8.023193 C4.247238,8.05127 4.522476,8.130615 4.6804047,8.073242 C4.6736755,8.073242 4.666809,8.073242 4.660019,8.073242 C4.4497375,7.8325195 4.1070557,7.6726074 3.895691,7.414551 C3.1981812,6.5629883 2.54451,5.2526855 2.9579926,3.6918945 C3.0629272,3.2961426 3.2292175,2.9465332 3.4064636,2.6242676 C3.4131775,2.6276855 3.420044,2.6306152 3.4268494,2.6340332 C3.5079498,2.8010254 3.6891327,2.923584 3.8039246,3.0632324 C4.1600494,3.4968262 4.59964,3.886963 5.047333,4.230957 C6.573044,5.402588 7.9468994,6.123047 10.153534,6.656006 C10.713303,6.79126 11.360321,6.8945312 12.02887,6.895508 C11.840973,6.3583984 11.901413,5.489258 12.049255,4.9692383 C12.421112,3.6621094 13.228775,2.7197266 14.413818,2.215332 C14.697205,2.0944824 15.011475,2.0063477 15.341293,1.9353027 C15.511093,1.9155273 15.68103,1.8955078 15.850906,1.8757324 Z"/>
</svg>