<svg xmlns="http://www.w3.org/2000/svg"
 xmlns:xlink="http://www.w3.org/1999/xlink"
 width="67px" height="58px"  viewBox="0 0 67 58">
<path fill-rule="evenodd"  fill="#ffffff"
 d="M51.0,45.0 C49.34314,45.0 48.0,43.65674 48.0,41.999756 C48.0,40.343018 49.34314,39.0 51.0,39.0 C55.97058,39.0 59.999878,34.97046 59.999878,30.0 C59.999878,27.31958 58.8219,24.92041 56.963135,23.271729 C56.771362,23.101562 56.571655,22.94043 56.365845,22.786865 C56.35254,22.776611 56.339233,22.766602 56.325806,22.756836 C56.13159,22.613037 55.93091,22.478516 55.72522,22.350586 C55.69348,22.33081 55.661377,22.311523 55.629272,22.292236 C55.4375,22.17627 55.24121,22.067627 55.04077,21.966309 C54.985718,21.938477 54.92981,21.912354 54.874023,21.885742 C54.690063,21.79712 54.503296,21.713379 54.312744,21.637207 C54.229736,21.604492 54.14502,21.575928 54.06079,21.545166 C53.88977,21.482666 53.71765,21.421875 53.541992,21.370117 C53.425537,21.335693 53.306274,21.30835 53.18799,21.279053 C53.036255,21.240479 52.885254,21.200195 52.73059,21.17041 C52.568604,21.138428 52.402954,21.117676 52.238037,21.095215 C52.11914,21.078613 52.002197,21.056152 51.881958,21.044922 C51.591553,21.016357 51.29773,21.000244 51.0,21.000244 C50.906006,21.000244 50.815063,21.010742 50.7218,21.013916 C50.63086,20.500977 50.51538,19.997559 50.37964,19.502197 C50.346313,19.381104 50.30139,19.26538 50.265747,19.145264 C50.153687,18.770264 50.03882,18.396729 49.901978,18.033447 C49.86084,17.92334 49.81006,17.818604 49.7666,17.709473 C49.618652,17.340088 49.466187,16.972656 49.29358,16.616455 C49.251953,16.530518 49.203735,16.44873 49.160645,16.363525 C48.972412,15.990967 48.77661,15.622559 48.562256,15.266357 C45.594604,10.317627 40.19153,6.999756 33.999878,6.999756 C27.808289,6.999756 22.405457,10.317627 19.437683,15.266357 C19.223267,15.622559 19.027466,15.990967 18.839111,16.363525 C18.796265,16.44873 18.747986,16.530518 18.70642,16.616455 C18.533752,16.972656 18.381226,17.340088 18.233337,17.709473 C18.190002,17.818604 18.13916,17.92334 18.097961,18.033447 C17.961182,18.396729 17.84613,18.770264 17.734253,19.145264 C17.698486,19.26538 17.653503,19.381104 17.620361,19.502197 C17.484497,19.997559 17.369202,20.500977 17.278198,21.013916 C17.184937,21.010742 17.093872,21.000244 17.000061,21.000244 C16.702148,21.000244 16.408386,21.016357 16.11792,21.044922 C15.997742,21.056152 15.880798,21.078613 15.762024,21.095215 C15.596985,21.117676 15.4313965,21.138428 15.269226,21.17041 C15.114624,21.200195 14.963623,21.240479 14.812012,21.279053 C14.6935425,21.30835 14.574463,21.335693 14.45813,21.370117 C14.282288,21.421875 14.110291,21.482666 13.939209,21.545166 C13.85498,21.575928 13.770325,21.604492 13.687195,21.637207 C13.496643,21.713379 13.309998,21.79712 13.125977,21.885742 C13.07019,21.912354 13.01416,21.938477 12.9591675,21.966309 C12.758484,22.067627 12.562256,22.17627 12.370728,22.292236 C12.338623,22.311523 12.306335,22.33081 12.274536,22.350586 C12.069031,22.478516 11.868286,22.613037 11.674011,22.756836 C11.6605835,22.766602 11.647461,22.776611 11.633972,22.786865 C11.428284,22.94043 11.228638,23.101562 11.036743,23.271729 C9.177856,24.92041 8.000061,27.31958 8.000061,30.0 C8.000061,34.97046 12.029358,39.0 17.000061,39.0 C18.6568,39.0 20.0,40.343018 20.0,41.999756 C20.0,43.65674 18.6568,45.0 17.000061,45.0 C8.715698,45.0 1.999939,38.28418 1.999939,30.0 C1.999939,23.242432 6.4698486,17.531982 12.613403,15.655029 C15.951965,7.085449 24.24762,1.0 33.999878,1.0 C43.75244,1.0 52.047974,7.085449 55.386597,15.655029 C61.53003,17.531982 66.0,23.242432 66.0,30.0 C66.0,38.28418 59.284058,45.0 51.0,45.0 ZM22.77002,37.99292 C22.77002,37.99292 22.775635,37.986816 22.775635,37.986816 C22.777649,37.98462 22.779724,37.98242 22.781677,37.979736 C22.781677,37.979736 31.770142,27.993164 31.770142,27.993164 C31.770142,27.993164 31.77826,28.000244 31.77826,28.000244 C32.32733,27.390625 33.114807,27.0 33.999878,27.0 C34.885254,27.0 35.672607,27.390625 36.22174,28.000244 C36.22174,28.000244 36.22992,27.993164 36.22992,27.993164 C36.22992,27.993164 45.219482,37.981445 45.219482,37.981445 C45.220337,37.982666 45.22119,37.9834 45.222168,37.98413 C45.222168,37.98413 45.22986,37.99292 45.22986,37.99292 C45.22986,37.99292 45.229614,37.99292 45.229614,37.99292 C45.648315,38.457764 45.92334,39.0542 45.98584,39.712646 C45.986084,39.714355 45.986206,39.716553 45.98633,39.718506 C45.994995,39.810547 45.999756,39.903564 45.999756,39.997803 C45.999756,39.99878 46.0,39.99951 46.0,39.999756 C46.0,41.656982 44.65686,43.0 43.0,43.0 C42.967285,43.0 42.934814,42.99829 42.902466,42.997314 C42.88257,42.996582 42.86267,42.996582 42.842896,42.99536 C42.8219,42.994385 42.801147,42.992188 42.780273,42.990967 C42.746582,42.98828 42.713013,42.98633 42.67993,42.982666 C42.66858,42.981445 42.65735,42.979736 42.645996,42.97827 C42.601685,42.973145 42.557617,42.967285 42.513916,42.959717 C42.513306,42.959717 42.512695,42.959473 42.512207,42.959473 C41.82495,42.847168 41.21643,42.501953 40.770386,42.00659 C40.770386,42.00659 40.77002,42.006836 40.77002,42.006836 C40.77002,42.006836 36.999817,37.81787 36.999817,37.81787 C36.999817,37.81787 36.999817,52.999756 36.999817,52.999756 C36.999817,54.65674 35.6568,56.000244 33.999878,56.000244 C32.343018,56.000244 30.999939,54.65674 30.999939,52.999756 C30.999939,52.999756 30.999939,37.81787 30.999939,37.81787 C30.999939,37.81787 27.229797,42.006836 27.229797,42.006836 C27.229797,42.006836 27.229553,42.00659 27.229553,42.00659 C26.783936,42.50122 26.175964,42.846436 25.489685,42.95923 C25.488342,42.959473 25.486816,42.959717 25.485474,42.959717 C25.442566,42.967285 25.399292,42.972656 25.355835,42.977783 C25.343811,42.979736 25.331787,42.981445 25.319702,42.982666 C25.287292,42.98633 25.254456,42.98828 25.22168,42.990723 C25.200073,42.992188 25.178589,42.994385 25.156921,42.995605 C25.137817,42.996582 25.11853,42.996582 25.099487,42.997314 C25.066406,42.99829 25.033447,43.0 25.000061,43.0 C23.860779,43.0 22.870056,42.364746 22.36206,41.42993 C22.131104,41.00464 22.0,40.51758 22.0,39.999756 C22.0,39.228027 22.291565,38.524902 22.770203,37.99292 C22.770203,37.99292 22.77002,37.99292 22.77002,37.99292 Z"/>
</svg>