<svg xmlns="http://www.w3.org/2000/svg"
 xmlns:xlink="http://www.w3.org/1999/xlink"
 width="75px" height="65px"  viewBox="0 0 75 65">
<path fill-rule="evenodd"  fill="#ffffff"
 d="M53.101135,1.0397949 C47.70294,1.0397949 43.375977,2.9726562 39.559204,6.7783203 C39.557068,6.779785 39.554993,6.7819824 39.552917,6.7841797 C39.55249,6.784668 39.551758,6.7854004 39.55133,6.7856445 C39.55133,6.7856445 37.38214,9.5078125 37.38214,9.5078125 C37.38214,9.5078125 35.212708,6.9489746 35.212708,6.9489746 C35.210815,6.946533 35.208496,6.94458 35.20636,6.9421387 C35.205994,6.9421387 35.205505,6.9414062 35.2052,6.941162 C35.2052,6.941162 35.2052,6.941162 35.2052,6.941162 C31.388062,3.135498 27.061218,1.0397949 21.663147,1.0397949 C16.264893,1.0397949 11.189453,3.135498 7.3724365,6.941162 C3.555481,10.746582 1.4533691,15.806152 1.4532471,21.187988 C1.4530029,26.567139 3.5528564,31.624268 7.366333,35.429443 C7.366333,35.429443 34.193176,62.399414 34.193176,62.399414 C35.0365,63.247314 36.18445,63.724365 37.38214,63.724365 C38.57959,63.724365 39.727783,63.247314 40.571045,62.399414 C40.571045,62.399414 67.39636,35.431152 67.39636,35.431152 C71.21008,31.625977 73.311035,26.568115 73.31116,21.18872 C73.3114,15.806641 71.20911,10.746826 67.391785,6.941162 C63.57428,3.135498 58.49933,1.0397949 53.101135,1.0397949 C53.101135,1.0397949 53.101135,1.0397949 53.101135,1.0397949 Z"/>
</svg>