<svg xmlns="http://www.w3.org/2000/svg"
 xmlns:xlink="http://www.w3.org/1999/xlink"
 width="68px" height="56px"  viewBox="0 0 68 56">
<path fill-rule="evenodd"  fill="#ffffff"
 d="M64.70761,19.466309 C64.70761,19.466309 64.67793,19.48706 64.67793,19.48706 C64.677505,19.487305 64.67714,19.487549 64.67671,19.487549 C64.67671,19.487549 38.70764,37.466553 38.70764,37.466553 C38.70764,37.466553 38.70584,37.46411 38.70584,37.46411 C38.221054,37.800293 37.634674,37.999756 36.99997,37.999756 C36.384415,37.999756 35.812775,37.813232 35.336563,37.494873 C35.336563,37.494873 35.335846,37.496338 35.335846,37.496338 C35.335846,37.496338 35.325256,37.48877 35.325256,37.48877 C35.323624,37.488037 35.322113,37.48706 35.32068,37.48584 C35.32068,37.48584 21.900269,28.539062 21.900269,28.539062 C21.900269,28.539062 7.9999237,36.715576 7.9999237,36.715576 C7.9999237,36.715576 7.9999237,48.999756 7.9999237,48.999756 C7.9999237,48.999756 63.000015,48.999756 63.000015,48.999756 C64.65675,48.999756 66.0,50.343018 66.0,52.0 C66.0,53.65674 64.65675,54.999756 63.000015,54.999756 C63.000015,54.999756 4.9998474,54.999756 4.9998474,54.999756 C3.3431091,54.999756 1.9999237,53.65674 1.9999237,52.0 C1.9999237,52.0 1.9999237,4.0 1.9999237,4.0 C1.9999237,2.3427734 3.3431091,1.0 4.9998474,1.0 C6.6567383,1.0 7.9999237,2.3427734 7.9999237,4.0 C7.9999237,4.0 7.9999237,29.754883 7.9999237,29.754883 C7.9999237,29.754883 20.478912,22.414307 20.478912,22.414307 C20.478912,22.414307 20.484787,22.424072 20.484787,22.424072 C20.930954,22.160889 21.444443,21.999756 21.999985,21.999756 C22.615677,21.999756 23.187164,22.186768 23.663452,22.504639 C23.663452,22.504639 23.664017,22.503906 23.664017,22.503906 C23.664017,22.503906 23.674683,22.510742 23.674683,22.510742 C23.67633,22.511963 23.67775,22.51294 23.67926,22.51416 C23.67926,22.51416 36.96814,31.373291 36.96814,31.373291 C36.96814,31.373291 61.292343,14.532959 61.292343,14.532959 C61.292343,14.532959 61.29419,14.535645 61.29419,14.535645 C61.778854,14.199463 62.365356,13.999756 63.000015,13.999756 C64.65675,13.999756 66.0,15.343018 66.0,16.999756 C66.0,18.021973 65.4866,18.922363 64.7059,19.463867 C64.7059,19.463867 64.70761,19.466309 64.70761,19.466309 Z"/>
</svg>